<svg xmlns="http://www.w3.org/2000/svg" viewBox="0 0 32 32">
  <!-- Arka plan gradient -->
  <defs>
    <linearGradient id="bgGradient" x1="0%" y1="0%" x2="100%" y2="100%">
      <stop offset="0%" stop-color="#121212" />
      <stop offset="100%" stop-color="#2a2a2a" />
    </linearGradient>
    <filter id="glow" x="-20%" y="-20%" width="140%" height="140%">
      <feGaussianBlur stdDeviation="1" result="blur" />
      <feComposite in="SourceGraphic" in2="blur" operator="over" />
    </filter>
  </defs>
  
  <!-- Yuvarlak arka plan -->
  <circle cx="16" cy="16" r="16" fill="url(#bgGradient)"/>
  
  <!-- Dış kenar parlama efekti -->
  <circle cx="16" cy="16" r="15" fill="none" stroke="#444" stroke-width="0.5"/>
  
  <!-- Stilize edilmiş küçük M harfi -->
  <g transform="scale(0.85) translate(2.5, 2.5)">
    <path d="M9 10 L9 22 L12 22 L12 14 L16 19 L20 14 L20 22 L23 22 L23 10 L19 10 L16 15 L13 10 Z" 
          fill="none" 
          stroke="#f0f0f0" 
          stroke-width="1" 
          filter="url(#glow)" />
    <path d="M9 10 L9 22 L12 22 L12 14 L16 19 L20 14 L20 22 L23 22 L23 10 L19 10 L16 15 L13 10 Z" 
          fill="#f0f0f0" />
  </g>
</svg>
